<mxfile host="65bd71144e">
    <diagram id="QvFogop1DBaBEqnqRaTt" name="Página-1">
        <mxGraphModel dx="807" dy="257" grid="1" gridSize="10" guides="1" tooltips="1" connect="1" arrows="1" fold="1" page="1" pageScale="1" pageWidth="827" pageHeight="1169" math="0" shadow="0">
            <root>
                <mxCell id="0"/>
                <mxCell id="1" parent="0"/>
                <mxCell id="2" value="Cuadros" style="swimlane;fontStyle=0;childLayout=stackLayout;horizontal=1;startSize=26;fillColor=none;horizontalStack=0;resizeParent=1;resizeParentMax=0;resizeLast=0;collapsible=1;marginBottom=0;" vertex="1" parent="1">
                    <mxGeometry x="130" y="60" width="410" height="170" as="geometry"/>
                </mxCell>
                <mxCell id="3" value="- Nombre: 1..* string()&#10;- Autor: 1..* string()&#10;- Museo: 1..* string()&#10;- Año: 1 int()&#10;- Materiales: 1 enum listaMaterial&#10;- Copias: 1 boolean()&#10;- Técnicas: 1 enum tecnicas&#10;- Lugar_creacion: 1..* string()&#10;- Conservacion: 1 enum formasConserva&#10;" style="text;strokeColor=none;fillColor=none;align=left;verticalAlign=top;spacingLeft=4;spacingRight=4;overflow=hidden;rotatable=0;points=[[0,0.5],[1,0.5]];portConstraint=eastwest;" vertex="1" parent="2">
                    <mxGeometry y="26" width="410" height="144" as="geometry"/>
                </mxCell>
                <mxCell id="6" value="&lt;p style=&quot;margin:0px;margin-top:4px;text-align:center;&quot;&gt;&lt;i&gt;&amp;lt;&amp;lt;enumeration&amp;gt;&amp;gt;&lt;/i&gt;&lt;br&gt;&lt;b&gt;tecnicas&lt;/b&gt;&lt;/p&gt;&lt;p style=&quot;margin:0px;margin-left:4px;&quot;&gt;Acuarela&lt;/p&gt;&lt;p style=&quot;margin:0px;margin-left:4px;&quot;&gt;Óleo&lt;/p&gt;&lt;p style=&quot;margin:0px;margin-left:4px;&quot;&gt;Gouache&lt;/p&gt;&lt;p style=&quot;margin:0px;margin-left:4px;&quot;&gt;Aerografia&lt;/p&gt;&lt;p style=&quot;margin:0px;margin-left:4px;&quot;&gt;Témpera&lt;/p&gt;&lt;p style=&quot;margin:0px;margin-left:4px;&quot;&gt;Tinta&lt;/p&gt;" style="verticalAlign=top;align=left;overflow=fill;fontSize=12;fontFamily=Helvetica;html=1;" vertex="1" parent="1">
                    <mxGeometry x="560" y="20" width="140" height="120" as="geometry"/>
                </mxCell>
                <mxCell id="7" value="&lt;p style=&quot;margin:0px;margin-top:4px;text-align:center;&quot;&gt;&lt;i&gt;&amp;lt;&amp;lt;enumeration&amp;gt;&amp;gt;&lt;/i&gt;&lt;br&gt;&lt;b&gt;listaMaterial&lt;/b&gt;&lt;/p&gt;&lt;hr size=&quot;1&quot;&gt;&lt;p style=&quot;margin:0px;margin-left:4px;&quot;&gt;Madera&lt;/p&gt;&lt;p style=&quot;margin:0px;margin-left:4px;&quot;&gt;Lienzo&lt;/p&gt;&lt;p style=&quot;margin:0px;margin-left:4px;&quot;&gt;Obra&lt;/p&gt;" style="verticalAlign=top;align=left;overflow=fill;fontSize=12;fontFamily=Helvetica;html=1;" vertex="1" parent="1">
                    <mxGeometry x="560" y="160" width="140" height="110" as="geometry"/>
                </mxCell>
                <mxCell id="8" value="&lt;p style=&quot;margin:0px;margin-top:4px;text-align:center;&quot;&gt;&lt;i&gt;&amp;lt;&amp;lt;enumeration&amp;gt;&amp;gt;&lt;/i&gt;&lt;br&gt;&lt;b&gt;formasConserva&lt;/b&gt;&lt;/p&gt;&lt;hr size=&quot;1&quot;&gt;&lt;p style=&quot;margin:0px;margin-left:4px;&quot;&gt;- Excelente&lt;/p&gt;&lt;p style=&quot;margin:0px;margin-left:4px;&quot;&gt;- Bueno&lt;/p&gt;&lt;p style=&quot;margin:0px;margin-left:4px;&quot;&gt;- Regular&lt;/p&gt;&lt;p style=&quot;margin:0px;margin-left:4px;&quot;&gt;- Malo&lt;/p&gt;&lt;p style=&quot;margin:0px;margin-left:4px;&quot;&gt;- Destruido&lt;/p&gt;&lt;p style=&quot;margin:0px;margin-left:4px;&quot;&gt;&lt;br&gt;&lt;/p&gt;" style="verticalAlign=top;align=left;overflow=fill;fontSize=12;fontFamily=Helvetica;html=1;" vertex="1" parent="1">
                    <mxGeometry x="560" y="290" width="190" height="140" as="geometry"/>
                </mxCell>
            </root>
        </mxGraphModel>
    </diagram>
</mxfile>
